<svg width="40" height="40" viewBox="0 0 60 60" fill="none" xmlns="http://www.w3.org/2000/svg">
<g id="time_svgrepo.com">
<path id="Vector" fill-rule="evenodd" clip-rule="evenodd" d="M30 10C18.9543 10 10 18.9543 10 30C10 41.0458 18.9543 50 30 50C41.0458 50 50 41.0458 50 30C50 18.9543 41.0458 10 30 10ZM5 30C5 16.1929 16.1929 5 30 5C43.807 5 55 16.1929 55 30C55 43.807 43.807 55 30 55C16.1929 55 5 43.807 5 30ZM29.571 16.8934C30.9517 16.8934 32.071 18.0127 32.071 19.3934V31.8112L40.8883 35.1632C42.179 35.6537 42.8275 37.0977 42.3368 38.3882C41.8463 39.679 40.4023 40.3275 39.1118 39.8368L28.6827 35.8725C27.7125 35.5035 27.071 34.5735 27.071 33.5355V19.3934C27.071 18.0127 28.1902 16.8934 29.571 16.8934Z" fill="#0F1729"/>
</g>
</svg>
