<svg width="60" height="60" viewBox="0 0 60 60" fill="none" xmlns="http://www.w3.org/2000/svg">
<path d="M54.0235 29.736V17.736C54.0235 15.1899 53.0119 12.748 51.2117 10.9476C49.4114 9.14727 46.9694 8.13599 44.4235 8.13599H15.6234C13.0773 8.13599 10.6355 9.14727 8.83521 10.9476C7.03485 12.748 6.02344 15.1899 6.02344 17.736V41.736C6.02344 44.2821 7.03485 46.7236 8.83521 48.5241C10.6355 50.3244 13.0773 51.336 15.6234 51.336H30.0235" stroke="black" stroke-width="3.6" stroke-linecap="round" stroke-linejoin="round"/>
<path d="M52.1017 13.0078C38.6377 38.5438 21.3578 38.5198 7.8938 13.0078" stroke="black" stroke-width="3.6" stroke-linecap="round" stroke-linejoin="round"/>
<path d="M37.2236 44.136H56.4236" stroke="black" stroke-width="3.6" stroke-linecap="round" stroke-linejoin="round"/>
<path d="M49.2236 36.936L56.4236 44.136L49.2236 51.336" stroke="black" stroke-width="3.6" stroke-linecap="round" stroke-linejoin="round"/>
</svg>
