<svg id="visual" viewBox="0 0 900 100" width="900" height="100" xmlns="http://www.w3.org/2000/svg" xmlns:xlink="http://www.w3.org/1999/xlink" version="1.1"><rect x="0" y="0" width="900" height="100" fill="#FFFFFF"></rect><path d="M0 63L21.5 65C43 67 86 71 128.8 63.8C171.7 56.7 214.3 38.3 257.2 38.8C300 39.3 343 58.7 385.8 64.2C428.7 69.7 471.3 61.3 514.2 51.2C557 41 600 29 642.8 24.5C685.7 20 728.3 23 771.2 29.7C814 36.3 857 46.7 878.5 51.8L900 57L900 101L878.5 101C857 101 814 101 771.2 101C728.3 101 685.7 101 642.8 101C600 101 557 101 514.2 101C471.3 101 428.7 101 385.8 101C343 101 300 101 257.2 101C214.3 101 171.7 101 128.8 101C86 101 43 101 21.5 101L0 101Z" fill="#17100a" stroke-linecap="round" stroke-linejoin="miter"></path></svg>