<svg id="visual" viewBox="0 0 900 200" width="900" height="200" xmlns="http://www.w3.org/2000/svg" xmlns:xlink="http://www.w3.org/1999/xlink" version="1.1"><rect x="0" y="0" width="900" height="200" fill="#FFFFFF"></rect><path d="M0 38L25 36C50 34 100 30 150 36.2C200 42.3 250 58.7 300 59.3C350 60 400 45 450 38C500 31 550 32 600 41.3C650 50.7 700 68.3 750 69.3C800 70.3 850 54.7 875 46.8L900 39L900 0L875 0C850 0 800 0 750 0C700 0 650 0 600 0C550 0 500 0 450 0C400 0 350 0 300 0C250 0 200 0 150 0C100 0 50 0 25 0L0 0Z" fill="#17100a" stroke-linecap="round" stroke-linejoin="miter"></path></svg>