<svg id="visual" viewBox="0 0 900 200" width="900" height="200" xmlns="http://www.w3.org/2000/svg" xmlns:xlink="http://www.w3.org/1999/xlink" version="1.1"><rect x="0" y="0" width="900" height="200" fill="#FFFFFF"></rect><path d="M0 52L30 45.5C60 39 120 26 180 19.7C240 13.3 300 13.7 360 37.2C420 60.7 480 107.3 540 106C600 104.7 660 55.3 720 49.2C780 43 840 80 870 98.5L900 117L900 0L870 0C840 0 780 0 720 0C660 0 600 0 540 0C480 0 420 0 360 0C300 0 240 0 180 0C120 0 60 0 30 0L0 0Z" fill="#17100a" stroke-linecap="round" stroke-linejoin="miter"></path></svg>